<?xml version="1.0" encoding="UTF-8" standalone="no"?>
<!DOCTYPE svg PUBLIC "-//W3C//DTD SVG 1.1//EN"
 "http://www.w3.org/Graphics/SVG/1.1/DTD/svg11.dtd">
<!-- Generated by graphviz version 2.40.1 (20161225.0304)
 -->
<!-- Title: %3 Pages: 1 -->
<svg width="1995pt" height="404pt"
 viewBox="0.00 0.00 1994.68 404.00" xmlns="http://www.w3.org/2000/svg" xmlns:xlink="http://www.w3.org/1999/xlink">
<g id="graph0" class="graph" transform="scale(1 1) rotate(0) translate(4 400)">
<title>%3</title>
<polygon fill="#ffffff" stroke="transparent" points="-4,4 -4,-400 1990.6832,-400 1990.6832,4 -4,4"/>
<!-- grain -->
<g id="node1" class="node">
<title>grain</title>
<g id="a_node1"><a target="_blank" xlink:href="grain.html" xlink:title="grain">
<ellipse fill="none" stroke="#000000" cx="585.3899" cy="-234" rx="35.194" ry="18"/>
<text text-anchor="middle" x="585.3899" y="-230.3" font-family="Times,serif" font-size="14.00" fill="#000000">grain</text>
</a>
</g>
</g>
<!-- grain.autograd -->
<g id="node2" class="node">
<title>grain.autograd</title>
<g id="a_node2"><a target="_blank" xlink:href="grain.autograd.html" xlink:title="grain.autograd">
<ellipse fill="none" stroke="#000000" cx="1048.3899" cy="-90" rx="79.8859" ry="18"/>
<text text-anchor="middle" x="1048.3899" y="-86.3" font-family="Times,serif" font-size="14.00" fill="#000000">grain.autograd</text>
</a>
</g>
</g>
<!-- grain&#45;&gt;grain.autograd -->
<g id="edge1" class="edge">
<title>grain&#45;&gt;grain.autograd</title>
<path fill="none" stroke="#000000" d="M599.2641,-217.199C617.5625,-196.2998 651.8648,-161.2701 689.3899,-144 736.7809,-122.1892 873.0018,-106.0057 963.3503,-97.2921"/>
<polygon fill="#000000" stroke="#000000" points="963.6874,-100.776 973.3106,-96.3438 963.0239,-93.8075 963.6874,-100.776"/>
</g>
<!-- grain.chain -->
<g id="node3" class="node">
<title>grain.chain</title>
<g id="a_node3"><a target="_blank" xlink:href="grain.chain.html" xlink:title="grain.chain">
<ellipse fill="none" stroke="#000000" cx="762.3899" cy="-162" rx="63.8893" ry="18"/>
<text text-anchor="middle" x="762.3899" y="-158.3" font-family="Times,serif" font-size="14.00" fill="#000000">grain.chain</text>
</a>
</g>
</g>
<!-- grain&#45;&gt;grain.chain -->
<g id="edge2" class="edge">
<title>grain&#45;&gt;grain.chain</title>
<path fill="none" stroke="#000000" d="M613.0461,-222.75C640.7446,-211.4828 683.8546,-193.9465 716.6511,-180.6056"/>
<polygon fill="#000000" stroke="#000000" points="718.093,-183.7976 726.0371,-176.7876 715.4553,-177.3136 718.093,-183.7976"/>
</g>
<!-- grain.config -->
<g id="node4" class="node">
<title>grain.config</title>
<g id="a_node4"><a target="_blank" xlink:href="grain.config.html" xlink:title="grain.config">
<ellipse fill="none" stroke="#000000" cx="209.3899" cy="-162" rx="66.8882" ry="18"/>
<text text-anchor="middle" x="209.3899" y="-158.3" font-family="Times,serif" font-size="14.00" fill="#000000">grain.config</text>
</a>
</g>
</g>
<!-- grain&#45;&gt;grain.config -->
<g id="edge3" class="edge">
<title>grain&#45;&gt;grain.config</title>
<path fill="none" stroke="#000000" d="M551.5311,-228.5233C495.8404,-219.377 381.4951,-200.0149 285.3899,-180 280.08,-178.8942 274.574,-177.6945 269.0628,-176.4572"/>
<polygon fill="#000000" stroke="#000000" points="269.7063,-173.0141 259.1782,-174.2018 268.149,-179.8387 269.7063,-173.0141"/>
</g>
<!-- grain.metric -->
<g id="node15" class="node">
<title>grain.metric</title>
<g id="a_node15"><a target="_blank" xlink:href="grain.metric.html" xlink:title="grain.metric">
<ellipse fill="none" stroke="#000000" cx="913.3899" cy="-162" rx="68.7879" ry="18"/>
<text text-anchor="middle" x="913.3899" y="-158.3" font-family="Times,serif" font-size="14.00" fill="#000000">grain.metric</text>
</a>
</g>
</g>
<!-- grain&#45;&gt;grain.metric -->
<g id="edge4" class="edge">
<title>grain&#45;&gt;grain.metric</title>
<path fill="none" stroke="#000000" d="M618.1822,-227.0705C665.989,-216.9333 757.6022,-197.3757 835.3899,-180 840.7304,-178.8071 846.2734,-177.5553 851.8301,-176.2909"/>
<polygon fill="#000000" stroke="#000000" points="852.8373,-179.6511 861.8065,-174.0116 851.2781,-172.827 852.8373,-179.6511"/>
</g>
<!-- grain.optim -->
<g id="node16" class="node">
<title>grain.optim</title>
<g id="a_node16"><a target="_blank" xlink:href="grain.optim.html" xlink:title="grain.optim">
<ellipse fill="none" stroke="#000000" cx="539.3899" cy="-162" rx="64.9885" ry="18"/>
<text text-anchor="middle" x="539.3899" y="-158.3" font-family="Times,serif" font-size="14.00" fill="#000000">grain.optim</text>
</a>
</g>
</g>
<!-- grain&#45;&gt;grain.optim -->
<g id="edge5" class="edge">
<title>grain&#45;&gt;grain.optim</title>
<path fill="none" stroke="#000000" d="M574.2545,-216.5708C568.8544,-208.1184 562.2526,-197.7851 556.2521,-188.3931"/>
<polygon fill="#000000" stroke="#000000" points="559.0756,-186.3115 550.7422,-179.7689 553.1767,-190.0802 559.0756,-186.3115"/>
</g>
<!-- grain.serializer -->
<g id="node17" class="node">
<title>grain.serializer</title>
<g id="a_node17"><a target="_blank" xlink:href="grain.serializer.html" xlink:title="grain.serializer">
<ellipse fill="none" stroke="#000000" cx="375.3899" cy="-162" rx="81.4863" ry="18"/>
<text text-anchor="middle" x="375.3899" y="-158.3" font-family="Times,serif" font-size="14.00" fill="#000000">grain.serializer</text>
</a>
</g>
</g>
<!-- grain&#45;&gt;grain.serializer -->
<g id="edge6" class="edge">
<title>grain&#45;&gt;grain.serializer</title>
<path fill="none" stroke="#000000" d="M556.1902,-223.9887C523.4981,-212.78 469.814,-194.374 429.4187,-180.5242"/>
<polygon fill="#000000" stroke="#000000" points="430.3115,-177.1303 419.7169,-177.1979 428.0412,-183.752 430.3115,-177.1303"/>
</g>
<!-- grain.cuda -->
<g id="node5" class="node">
<title>grain.cuda</title>
<g id="a_node5"><a target="_blank" xlink:href="grain.cuda.html" xlink:title="grain.cuda">
<ellipse fill="none" stroke="#000000" cx="1102.3899" cy="-18" rx="60.3893" ry="18"/>
<text text-anchor="middle" x="1102.3899" y="-14.3" font-family="Times,serif" font-size="14.00" fill="#000000">grain.cuda</text>
</a>
</g>
</g>
<!-- grain.autograd&#45;&gt;grain.cuda -->
<g id="edge7" class="edge">
<title>grain.autograd&#45;&gt;grain.cuda</title>
<path fill="none" stroke="#000000" d="M1061.7382,-72.2022C1068.1466,-63.6576 1075.9476,-53.2564 1082.9956,-43.859"/>
<polygon fill="#000000" stroke="#000000" points="1085.995,-45.6931 1089.1951,-35.593 1080.395,-41.493 1085.995,-45.6931"/>
</g>
<!-- grain.utility -->
<g id="node19" class="node">
<title>grain.utility</title>
<g id="a_node19"><a target="_blank" xlink:href="grain.utility.html" xlink:title="grain.utility">
<ellipse fill="none" stroke="#000000" cx="1428.3899" cy="-18" rx="65.7887" ry="18"/>
<text text-anchor="middle" x="1428.3899" y="-14.3" font-family="Times,serif" font-size="14.00" fill="#000000">grain.utility</text>
</a>
</g>
</g>
<!-- grain.autograd&#45;&gt;grain.utility -->
<g id="edge8" class="edge">
<title>grain.autograd&#45;&gt;grain.utility</title>
<path fill="none" stroke="#000000" d="M1109.8658,-78.3519C1179.6385,-65.1318 1292.9426,-43.6637 1363.929,-30.2136"/>
<polygon fill="#000000" stroke="#000000" points="1364.9115,-33.5898 1374.0851,-28.2893 1363.6084,-26.7122 1364.9115,-33.5898"/>
</g>
<!-- grain.chain&#45;&gt;grain.autograd -->
<g id="edge9" class="edge">
<title>grain.chain&#45;&gt;grain.autograd</title>
<path fill="none" stroke="#000000" d="M810.2598,-149.9488C858.214,-137.8764 932.2892,-119.2281 985.0793,-105.9383"/>
<polygon fill="#000000" stroke="#000000" points="986.1652,-109.2742 995.0082,-103.4387 984.4562,-102.486 986.1652,-109.2742"/>
</g>
<!-- grain.functions -->
<g id="node6" class="node">
<title>grain.functions</title>
<g id="a_node6"><a target="_blank" xlink:href="grain.functions.html" xlink:title="grain.functions">
<ellipse fill="none" stroke="#000000" cx="1250.3899" cy="-378" rx="81.4863" ry="18"/>
<text text-anchor="middle" x="1250.3899" y="-374.3" font-family="Times,serif" font-size="14.00" fill="#000000">grain.functions</text>
</a>
</g>
</g>
<!-- grain.functions.binary -->
<g id="node7" class="node">
<title>grain.functions.binary</title>
<g id="a_node7"><a target="_blank" xlink:href="grain.functions.binary.html" xlink:title="grain.functions.binary">
<ellipse fill="none" stroke="#000000" cx="114.3899" cy="-234" rx="114.2798" ry="18"/>
<text text-anchor="middle" x="114.3899" y="-230.3" font-family="Times,serif" font-size="14.00" fill="#000000">grain.functions.binary</text>
</a>
</g>
</g>
<!-- grain.functions&#45;&gt;grain.functions.binary -->
<g id="edge10" class="edge">
<title>grain.functions&#45;&gt;grain.functions.binary</title>
<path fill="none" stroke="#000000" d="M1179.7572,-369.0466C984.8577,-344.341 439.0674,-275.1563 213.6829,-246.5864"/>
<polygon fill="#000000" stroke="#000000" points="213.8812,-243.0836 203.5204,-245.2982 213.0008,-250.0281 213.8812,-243.0836"/>
</g>
<!-- grain.functions.common -->
<g id="node8" class="node">
<title>grain.functions.common</title>
<g id="a_node8"><a target="_blank" xlink:href="grain.functions.common.html" xlink:title="grain.functions.common">
<ellipse fill="none" stroke="#000000" cx="1428.3899" cy="-162" rx="124.2781" ry="18"/>
<text text-anchor="middle" x="1428.3899" y="-158.3" font-family="Times,serif" font-size="14.00" fill="#000000">grain.functions.common</text>
</a>
</g>
</g>
<!-- grain.functions&#45;&gt;grain.functions.common -->
<g id="edge11" class="edge">
<title>grain.functions&#45;&gt;grain.functions.common</title>
<path fill="none" stroke="#000000" d="M1307.9071,-365.17C1364.2921,-349.1972 1447.1735,-315.8534 1485.3899,-252 1493.6066,-238.271 1491.7119,-230.698 1485.3899,-216 1480.5086,-204.6517 1471.9401,-194.5709 1462.9068,-186.2823"/>
<polygon fill="#000000" stroke="#000000" points="1465.1527,-183.5977 1455.2801,-179.7529 1460.6003,-188.9152 1465.1527,-183.5977"/>
</g>
<!-- grain.functions.loss -->
<g id="node9" class="node">
<title>grain.functions.loss</title>
<g id="a_node9"><a target="_blank" xlink:href="grain.functions.loss.html" xlink:title="grain.functions.loss">
<ellipse fill="none" stroke="#000000" cx="819.3899" cy="-234" rx="102.8821" ry="18"/>
<text text-anchor="middle" x="819.3899" y="-230.3" font-family="Times,serif" font-size="14.00" fill="#000000">grain.functions.loss</text>
</a>
</g>
</g>
<!-- grain.functions&#45;&gt;grain.functions.loss -->
<g id="edge12" class="edge">
<title>grain.functions&#45;&gt;grain.functions.loss</title>
<path fill="none" stroke="#000000" d="M1205.485,-362.997C1126.6992,-336.6741 963.7059,-282.217 876.8352,-253.1929"/>
<polygon fill="#000000" stroke="#000000" points="877.7335,-249.8029 867.1397,-249.9535 875.5152,-256.4421 877.7335,-249.8029"/>
</g>
<!-- grain.functions.reduction -->
<g id="node11" class="node">
<title>grain.functions.reduction</title>
<g id="a_node11"><a target="_blank" xlink:href="grain.functions.reduction.html" xlink:title="grain.functions.reduction">
<ellipse fill="none" stroke="#000000" cx="1347.3899" cy="-234" rx="129.1772" ry="18"/>
<text text-anchor="middle" x="1347.3899" y="-230.3" font-family="Times,serif" font-size="14.00" fill="#000000">grain.functions.reduction</text>
</a>
</g>
</g>
<!-- grain.functions&#45;&gt;grain.functions.reduction -->
<g id="edge13" class="edge">
<title>grain.functions&#45;&gt;grain.functions.reduction</title>
<path fill="none" stroke="#000000" d="M1262.4788,-360.0535C1279.324,-335.0462 1309.9791,-289.5376 1329.4817,-260.5853"/>
<polygon fill="#000000" stroke="#000000" points="1332.4645,-262.422 1335.1485,-252.1727 1326.6588,-258.5112 1332.4645,-262.422"/>
</g>
<!-- grain.functions.topology -->
<g id="node12" class="node">
<title>grain.functions.topology</title>
<g id="a_node12"><a target="_blank" xlink:href="grain.functions.topology.html" xlink:title="grain.functions.topology">
<ellipse fill="none" stroke="#000000" cx="1656.3899" cy="-306" rx="124.2781" ry="18"/>
<text text-anchor="middle" x="1656.3899" y="-302.3" font-family="Times,serif" font-size="14.00" fill="#000000">grain.functions.topology</text>
</a>
</g>
</g>
<!-- grain.functions&#45;&gt;grain.functions.topology -->
<g id="edge14" class="edge">
<title>grain.functions&#45;&gt;grain.functions.topology</title>
<path fill="none" stroke="#000000" d="M1313.8274,-366.75C1382.0213,-354.6565 1490.9412,-335.3406 1567.6213,-321.7422"/>
<polygon fill="#000000" stroke="#000000" points="1568.5128,-325.1388 1577.748,-319.9463 1567.2905,-318.2463 1568.5128,-325.1388"/>
</g>
<!-- grain.functions.unary -->
<g id="node13" class="node">
<title>grain.functions.unary</title>
<g id="a_node13"><a target="_blank" xlink:href="grain.functions.unary.html" xlink:title="grain.functions.unary">
<ellipse fill="none" stroke="#000000" cx="1089.3899" cy="-234" rx="111.2805" ry="18"/>
<text text-anchor="middle" x="1089.3899" y="-230.3" font-family="Times,serif" font-size="14.00" fill="#000000">grain.functions.unary</text>
</a>
</g>
</g>
<!-- grain.functions&#45;&gt;grain.functions.unary -->
<g id="edge15" class="edge">
<title>grain.functions&#45;&gt;grain.functions.unary</title>
<path fill="none" stroke="#000000" d="M1230.6481,-360.3428C1202.1619,-334.8645 1149.4081,-287.6809 1117.0524,-258.7417"/>
<polygon fill="#000000" stroke="#000000" points="1119.0801,-255.8595 1109.2931,-251.8017 1114.4134,-261.0771 1119.0801,-255.8595"/>
</g>
<!-- grain.functions.binary&#45;&gt;grain.autograd -->
<g id="edge16" class="edge">
<title>grain.functions.binary&#45;&gt;grain.autograd</title>
<path fill="none" stroke="#000000" d="M112.3953,-215.9829C111.2085,-195.1913 112.9378,-161.6091 133.3899,-144 164.3431,-117.3493 734.3547,-98.7091 958.7249,-92.3758"/>
<polygon fill="#000000" stroke="#000000" points="958.9241,-95.8717 968.822,-92.0925 958.7277,-88.8744 958.9241,-95.8717"/>
</g>
<!-- grain.functions.binary&#45;&gt;grain.cuda -->
<g id="edge17" class="edge">
<title>grain.functions.binary&#45;&gt;grain.cuda</title>
<path fill="none" stroke="#000000" d="M90.3558,-216.2594C79.6297,-206.8293 68.1329,-194.2435 62.3899,-180 44.4402,-135.4825 29.3404,-106.81 62.3899,-72 95.7603,-36.8519 803.051,-22.6967 1031.7433,-19.0279"/>
<polygon fill="#000000" stroke="#000000" points="1032.0014,-22.5244 1041.9446,-18.8662 1031.8903,-15.5252 1032.0014,-22.5244"/>
</g>
<!-- grain.functions.binary&#45;&gt;grain.functions.common -->
<g id="edge18" class="edge">
<title>grain.functions.binary&#45;&gt;grain.functions.common</title>
<path fill="none" stroke="#000000" d="M222.4783,-228.0773C463.5923,-214.8656 1044.3926,-183.0409 1301.8555,-168.9334"/>
<polygon fill="#000000" stroke="#000000" points="1302.2062,-172.4195 1311.9997,-168.3775 1301.8231,-165.43 1302.2062,-172.4195"/>
</g>
<!-- grain.functions.binary&#45;&gt;grain.utility -->
<g id="edge19" class="edge">
<title>grain.functions.binary&#45;&gt;grain.utility</title>
<path fill="none" stroke="#000000" d="M107.9254,-215.9866C102.1397,-196.426 96.6256,-165.1525 111.3899,-144 164.506,-67.9013 216.3793,-90.1499 307.3899,-72 495.8455,-34.4171 979.5222,-46.7142 1171.3899,-36 1233.3525,-32.5399 1303.6438,-27.5429 1355.0337,-23.6914"/>
<polygon fill="#000000" stroke="#000000" points="1355.3426,-27.1781 1365.0516,-22.9372 1354.817,-20.1979 1355.3426,-27.1781"/>
</g>
<!-- grain.functions.common&#45;&gt;grain.autograd -->
<g id="edge20" class="edge">
<title>grain.functions.common&#45;&gt;grain.autograd</title>
<path fill="none" stroke="#000000" d="M1352.8597,-147.689C1285.0237,-134.8359 1186.1505,-116.102 1119.6563,-103.5031"/>
<polygon fill="#000000" stroke="#000000" points="1120.1572,-100.0358 1109.6804,-101.613 1118.854,-106.9135 1120.1572,-100.0358"/>
</g>
<!-- grain.functions.common&#45;&gt;grain.cuda -->
<g id="edge21" class="edge">
<title>grain.functions.common&#45;&gt;grain.cuda</title>
<path fill="none" stroke="#000000" d="M1391.3033,-144.7757C1351.6211,-126.432 1286.7648,-96.6986 1230.3899,-72 1202.8909,-59.9524 1171.8714,-46.8537 1147.2565,-36.5745"/>
<polygon fill="#000000" stroke="#000000" points="1148.3927,-33.2563 1137.8158,-32.6392 1145.6993,-39.7174 1148.3927,-33.2563"/>
</g>
<!-- grain.functions.common&#45;&gt;grain.utility -->
<g id="edge22" class="edge">
<title>grain.functions.common&#45;&gt;grain.utility</title>
<path fill="none" stroke="#000000" d="M1428.3899,-143.7623C1428.3899,-119.201 1428.3899,-75.2474 1428.3899,-46.3541"/>
<polygon fill="#000000" stroke="#000000" points="1431.8899,-46.0896 1428.3899,-36.0896 1424.8899,-46.0897 1431.8899,-46.0896"/>
</g>
<!-- grain.functions.loss&#45;&gt;grain.autograd -->
<g id="edge23" class="edge">
<title>grain.functions.loss&#45;&gt;grain.autograd</title>
<path fill="none" stroke="#000000" d="M896.3415,-221.9196C928.1721,-214.0155 963.9673,-201.0734 991.3899,-180 1012.4365,-163.8263 1027.7993,-137.5015 1037.2366,-117.4903"/>
<polygon fill="#000000" stroke="#000000" points="1040.4844,-118.8017 1041.3923,-108.2459 1034.0998,-115.9316 1040.4844,-118.8017"/>
</g>
<!-- grain.functions.loss&#45;&gt;grain.cuda -->
<g id="edge24" class="edge">
<title>grain.functions.loss&#45;&gt;grain.cuda</title>
<path fill="none" stroke="#000000" d="M748.5163,-220.9267C725.7617,-213.0135 702.9573,-200.3272 689.3899,-180 680.5074,-166.692 679.8689,-156.8589 689.3899,-144 731.2113,-87.5164 933.3338,-46.1791 1038.4974,-28.1025"/>
<polygon fill="#000000" stroke="#000000" points="1039.3985,-31.4997 1048.6711,-26.3744 1038.2262,-24.5985 1039.3985,-31.4997"/>
</g>
<!-- grain.functions.loss&#45;&gt;grain.functions.common -->
<g id="edge25" class="edge">
<title>grain.functions.loss&#45;&gt;grain.functions.common</title>
<path fill="none" stroke="#000000" d="M904.2665,-223.78C925.5298,-221.2293 948.2932,-218.5068 969.3899,-216 1090.0843,-201.6587 1228.6551,-185.3823 1321.6876,-174.4822"/>
<polygon fill="#000000" stroke="#000000" points="1322.1478,-177.9523 1331.6726,-173.3125 1321.3333,-170.9999 1322.1478,-177.9523"/>
</g>
<!-- grain.functions.loss&#45;&gt;grain.utility -->
<g id="edge26" class="edge">
<title>grain.functions.loss&#45;&gt;grain.utility</title>
<path fill="none" stroke="#000000" d="M881.13,-219.5743C921.206,-209.6821 974.3512,-195.5667 1020.3899,-180 1140.093,-139.5256 1165.7215,-118.0561 1283.3899,-72 1315.0526,-59.607 1350.8528,-46.2678 1378.9585,-35.9478"/>
<polygon fill="#000000" stroke="#000000" points="1380.3741,-39.1567 1388.5595,-32.4299 1377.9658,-32.584 1380.3741,-39.1567"/>
</g>
<!-- grain.functions.random -->
<g id="node10" class="node">
<title>grain.functions.random</title>
<g id="a_node10"><a target="_blank" xlink:href="grain.functions.random.html" xlink:title="grain.functions.random">
<ellipse fill="none" stroke="#000000" cx="1690.3899" cy="-234" rx="120.4791" ry="18"/>
<text text-anchor="middle" x="1690.3899" y="-230.3" font-family="Times,serif" font-size="14.00" fill="#000000">grain.functions.random</text>
</a>
</g>
</g>
<!-- grain.functions.random&#45;&gt;grain.autograd -->
<g id="edge27" class="edge">
<title>grain.functions.random&#45;&gt;grain.autograd</title>
<path fill="none" stroke="#000000" d="M1671.2227,-215.8464C1647.4999,-194.5887 1604.8857,-160.2242 1561.3899,-144 1485.8219,-115.8128 1262.63,-100.5577 1136.9614,-93.9909"/>
<polygon fill="#000000" stroke="#000000" points="1137.1378,-90.4954 1126.971,-93.4764 1136.7778,-97.4862 1137.1378,-90.4954"/>
</g>
<!-- grain.functions.random&#45;&gt;grain.functions.common -->
<g id="edge28" class="edge">
<title>grain.functions.random&#45;&gt;grain.functions.common</title>
<path fill="none" stroke="#000000" d="M1632.5685,-218.1102C1592.3045,-207.0452 1538.4605,-192.2484 1496.175,-180.628"/>
<polygon fill="#000000" stroke="#000000" points="1497.0858,-177.2486 1486.5158,-177.9735 1495.2309,-183.9984 1497.0858,-177.2486"/>
</g>
<!-- grain.functions.random&#45;&gt;grain.utility -->
<g id="edge29" class="edge">
<title>grain.functions.random&#45;&gt;grain.utility</title>
<path fill="none" stroke="#000000" d="M1678.7612,-215.8877C1657.0352,-183.2716 1607.2981,-114.142 1550.3899,-72 1529.4603,-56.5011 1503.3813,-44.1999 1480.7136,-35.2772"/>
<polygon fill="#000000" stroke="#000000" points="1481.8234,-31.9547 1471.2327,-31.6606 1479.3285,-38.495 1481.8234,-31.9547"/>
</g>
<!-- grain.functions.reduction&#45;&gt;grain.autograd -->
<g id="edge30" class="edge">
<title>grain.functions.reduction&#45;&gt;grain.autograd</title>
<path fill="none" stroke="#000000" d="M1311.3235,-216.6302C1256.0355,-190.0033 1150.536,-139.1941 1091.365,-110.6971"/>
<polygon fill="#000000" stroke="#000000" points="1092.8093,-107.5079 1082.281,-106.3222 1089.7719,-113.8146 1092.8093,-107.5079"/>
</g>
<!-- grain.functions.reduction&#45;&gt;grain.cuda -->
<g id="edge31" class="edge">
<title>grain.functions.reduction&#45;&gt;grain.cuda</title>
<path fill="none" stroke="#000000" d="M1326.9227,-215.9555C1282.9103,-177.1527 1179.2492,-85.7618 1129.6976,-42.0754"/>
<polygon fill="#000000" stroke="#000000" points="1131.7603,-39.228 1121.9446,-35.2401 1127.1311,-44.4787 1131.7603,-39.228"/>
</g>
<!-- grain.functions.reduction&#45;&gt;grain.functions.common -->
<g id="edge32" class="edge">
<title>grain.functions.reduction&#45;&gt;grain.functions.common</title>
<path fill="none" stroke="#000000" d="M1367.4123,-216.2022C1377.4401,-207.2887 1389.7408,-196.3548 1400.6613,-186.6476"/>
<polygon fill="#000000" stroke="#000000" points="1403.1682,-189.1022 1408.317,-179.8425 1398.5176,-183.8703 1403.1682,-189.1022"/>
</g>
<!-- grain.functions.reduction&#45;&gt;grain.utility -->
<g id="edge33" class="edge">
<title>grain.functions.reduction&#45;&gt;grain.utility</title>
<path fill="none" stroke="#000000" d="M1441.922,-221.7115C1491.981,-213.0564 1546.2015,-199.497 1561.3899,-180 1601.4499,-128.5756 1520.3217,-69.796 1467.9933,-39.135"/>
<polygon fill="#000000" stroke="#000000" points="1469.6446,-36.0473 1459.2297,-34.1028 1466.1589,-42.1177 1469.6446,-36.0473"/>
</g>
<!-- grain.functions.topology&#45;&gt;grain.autograd -->
<g id="edge34" class="edge">
<title>grain.functions.topology&#45;&gt;grain.autograd</title>
<path fill="none" stroke="#000000" d="M1537.3212,-300.8033C1345.7178,-291.8572 988.3612,-272.5211 969.3899,-252 958.5285,-240.2514 962.0288,-230.2062 969.3899,-216 982.1543,-191.3657 1004.0693,-202.437 1020.3899,-180 1033.6478,-161.7734 1040.7447,-137.1072 1044.4724,-118.2067"/>
<polygon fill="#000000" stroke="#000000" points="1047.9634,-118.564 1046.2567,-108.1076 1041.0702,-117.3461 1047.9634,-118.564"/>
</g>
<!-- grain.functions.topology&#45;&gt;grain.functions.common -->
<g id="edge35" class="edge">
<title>grain.functions.topology&#45;&gt;grain.functions.common</title>
<path fill="none" stroke="#000000" d="M1622.522,-288.6763C1603.9748,-278.7173 1580.8685,-265.5257 1561.3899,-252 1540.917,-237.7839 1538.6939,-230.4561 1518.3899,-216 1502.8792,-204.9568 1485.0362,-193.932 1469.3489,-184.7504"/>
<polygon fill="#000000" stroke="#000000" points="1470.8042,-181.5488 1460.3956,-179.5712 1467.2991,-187.6081 1470.8042,-181.5488"/>
</g>
<!-- grain.testing -->
<g id="node18" class="node">
<title>grain.testing</title>
<g id="a_node18"><a target="_blank" xlink:href="grain.testing.html" xlink:title="grain.testing">
<ellipse fill="none" stroke="#000000" cx="1899.3899" cy="-234" rx="70.6878" ry="18"/>
<text text-anchor="middle" x="1899.3899" y="-230.3" font-family="Times,serif" font-size="14.00" fill="#000000">grain.testing</text>
</a>
</g>
</g>
<!-- grain.functions.topology&#45;&gt;grain.testing -->
<g id="edge36" class="edge">
<title>grain.functions.topology&#45;&gt;grain.testing</title>
<path fill="none" stroke="#000000" d="M1711.2268,-289.752C1750.5855,-278.0902 1803.4619,-262.4231 1843.1392,-250.6669"/>
<polygon fill="#000000" stroke="#000000" points="1844.3324,-253.9638 1852.926,-247.7671 1842.3437,-247.2522 1844.3324,-253.9638"/>
</g>
<!-- grain.functions.topology&#45;&gt;grain.utility -->
<g id="edge37" class="edge">
<title>grain.functions.topology&#45;&gt;grain.utility</title>
<path fill="none" stroke="#000000" d="M1757.9013,-295.611C1847.1284,-285.43 1964.9929,-269.0036 1979.3899,-252 1989.7288,-239.7891 1988.2541,-229.3201 1979.3899,-216 1923.5446,-132.0822 1623.5093,-59.3496 1491.1702,-30.8401"/>
<polygon fill="#000000" stroke="#000000" points="1491.6867,-27.3715 1481.1758,-28.7025 1490.2226,-34.2167 1491.6867,-27.3715"/>
</g>
<!-- grain.functions.unary&#45;&gt;grain.autograd -->
<g id="edge38" class="edge">
<title>grain.functions.unary&#45;&gt;grain.autograd</title>
<path fill="none" stroke="#000000" d="M1084.1972,-215.7623C1077.1732,-191.0928 1064.5791,-146.8598 1056.3544,-117.9731"/>
<polygon fill="#000000" stroke="#000000" points="1059.645,-116.7489 1053.5404,-108.0896 1052.9126,-118.6658 1059.645,-116.7489"/>
</g>
<!-- grain.functions.unary&#45;&gt;grain.cuda -->
<g id="edge39" class="edge">
<title>grain.functions.unary&#45;&gt;grain.cuda</title>
<path fill="none" stroke="#000000" d="M1098.7403,-215.8288C1110.4925,-191.8712 1130.0181,-148.0582 1137.3899,-108 1140.2856,-92.2642 1141.9273,-87.3431 1137.3899,-72 1134.4741,-62.1404 1129.1314,-52.3909 1123.4835,-43.9467"/>
<polygon fill="#000000" stroke="#000000" points="1126.2343,-41.776 1117.5764,-35.6694 1120.5365,-45.8423 1126.2343,-41.776"/>
</g>
<!-- grain.functions.unary&#45;&gt;grain.functions.common -->
<g id="edge40" class="edge">
<title>grain.functions.unary&#45;&gt;grain.functions.common</title>
<path fill="none" stroke="#000000" d="M1157.1768,-219.6028C1212.3382,-207.8871 1290.306,-191.3275 1348.4973,-178.9683"/>
<polygon fill="#000000" stroke="#000000" points="1349.3351,-182.3685 1358.3898,-176.8673 1347.8808,-175.5213 1349.3351,-182.3685"/>
</g>
<!-- grain.functions.unary&#45;&gt;grain.utility -->
<g id="edge41" class="edge">
<title>grain.functions.unary&#45;&gt;grain.utility</title>
<path fill="none" stroke="#000000" d="M1116.8445,-216.5068C1178.0906,-177.4827 1325.804,-83.3644 1393.4723,-40.2484"/>
<polygon fill="#000000" stroke="#000000" points="1395.5349,-43.0843 1402.0877,-34.7589 1391.7733,-37.1808 1395.5349,-43.0843"/>
</g>
<!-- grain.hdf5 -->
<g id="node14" class="node">
<title>grain.hdf5</title>
<g id="a_node14"><a target="_blank" xlink:href="grain.hdf5.html" xlink:title="grain.hdf5">
<ellipse fill="none" stroke="#000000" cx="375.3899" cy="-90" rx="59.2899" ry="18"/>
<text text-anchor="middle" x="375.3899" y="-86.3" font-family="Times,serif" font-size="14.00" fill="#000000">grain.hdf5</text>
</a>
</g>
</g>
<!-- grain.metric&#45;&gt;grain.autograd -->
<g id="edge42" class="edge">
<title>grain.metric&#45;&gt;grain.autograd</title>
<path fill="none" stroke="#000000" d="M944.0234,-145.6621C962.9129,-135.5877 987.3586,-122.55 1007.8422,-111.6254"/>
<polygon fill="#000000" stroke="#000000" points="1009.7642,-114.5671 1016.9406,-106.7729 1006.47,-108.3906 1009.7642,-114.5671"/>
</g>
<!-- grain.optim&#45;&gt;grain.autograd -->
<g id="edge43" class="edge">
<title>grain.optim&#45;&gt;grain.autograd</title>
<path fill="none" stroke="#000000" d="M588.5427,-150.0085C598.3919,-147.8297 608.6926,-145.7093 618.3899,-144 737.9533,-122.9248 877.6297,-106.9636 964.5616,-98.0426"/>
<polygon fill="#000000" stroke="#000000" points="965.0412,-101.5119 974.6349,-97.0162 964.3316,-94.548 965.0412,-101.5119"/>
</g>
<!-- grain.serializer&#45;&gt;grain.autograd -->
<g id="edge44" class="edge">
<title>grain.serializer&#45;&gt;grain.autograd</title>
<path fill="none" stroke="#000000" d="M433.8145,-149.3891C444.2945,-147.3917 455.141,-145.4953 465.3899,-144 640.1598,-118.501 846.2614,-102.7394 960.65,-95.2438"/>
<polygon fill="#000000" stroke="#000000" points="961.001,-98.7285 970.7531,-94.5877 960.5473,-91.7432 961.001,-98.7285"/>
</g>
<!-- grain.serializer&#45;&gt;grain.hdf5 -->
<g id="edge45" class="edge">
<title>grain.serializer&#45;&gt;grain.hdf5</title>
<path fill="none" stroke="#000000" d="M375.3899,-143.8314C375.3899,-136.131 375.3899,-126.9743 375.3899,-118.4166"/>
<polygon fill="#000000" stroke="#000000" points="378.89,-118.4132 375.3899,-108.4133 371.89,-118.4133 378.89,-118.4132"/>
</g>
<!-- grain.testing&#45;&gt;grain.autograd -->
<g id="edge46" class="edge">
<title>grain.testing&#45;&gt;grain.autograd</title>
<path fill="none" stroke="#000000" d="M1859.7625,-219.0237C1804.0527,-198.6192 1699.0127,-162.5102 1606.3899,-144 1443.0372,-111.3548 1248.6872,-98.2235 1137.807,-93.1053"/>
<polygon fill="#000000" stroke="#000000" points="1137.8173,-89.6023 1127.67,-92.649 1137.5025,-96.5952 1137.8173,-89.6023"/>
</g>
<!-- grain.testing&#45;&gt;grain.functions.common -->
<g id="edge47" class="edge">
<title>grain.testing&#45;&gt;grain.functions.common</title>
<path fill="none" stroke="#000000" d="M1847.4486,-221.6476C1838.1339,-219.6226 1828.495,-217.6501 1819.3899,-216 1724.0128,-198.7155 1614.6626,-184.0456 1535.8993,-174.3778"/>
<polygon fill="#000000" stroke="#000000" points="1536.315,-170.9027 1525.9646,-173.165 1535.4667,-177.8511 1536.315,-170.9027"/>
</g>
<!-- grain.testing&#45;&gt;grain.utility -->
<g id="edge48" class="edge">
<title>grain.testing&#45;&gt;grain.utility</title>
<path fill="none" stroke="#000000" d="M1870.5263,-217.3927C1815.8578,-186.3389 1692.9507,-118.4279 1584.3899,-72 1550.9818,-57.7125 1512.4035,-44.3325 1481.9694,-34.4652"/>
<polygon fill="#000000" stroke="#000000" points="1482.9825,-31.1146 1472.3912,-31.3883 1480.8415,-37.7791 1482.9825,-31.1146"/>
</g>
</g>
</svg>
